<?xml version="1.0" encoding="UTF-8" standalone="no"?>
<svg
   xmlns:dc="http://purl.org/dc/elements/1.1/"
   xmlns:cc="http://creativecommons.org/ns#"
   xmlns:rdf="http://www.w3.org/1999/02/22-rdf-syntax-ns#"
   xmlns:svg="http://www.w3.org/2000/svg"
   xmlns="http://www.w3.org/2000/svg"
   xmlns:sodipodi="http://sodipodi.sourceforge.net/DTD/sodipodi-0.dtd"
   xmlns:inkscape="http://www.inkscape.org/namespaces/inkscape"
   width="64"
   height="64"
   version="1"
   id="svg12"
   sodipodi:docname="system-suspend-hibernate.svg"
   inkscape:version="0.92.3 (unknown)">
  <metadata
     id="metadata18">
    <rdf:RDF>
      <cc:Work
         rdf:about="">
        <dc:format>image/svg+xml</dc:format>
        <dc:type
           rdf:resource="http://purl.org/dc/dcmitype/StillImage" />
      </cc:Work>
    </rdf:RDF>
  </metadata>
  <defs
     id="defs16" />
  <sodipodi:namedview
     pagecolor="#ffffff"
     bordercolor="#666666"
     borderopacity="1"
     objecttolerance="10"
     gridtolerance="10"
     guidetolerance="10"
     inkscape:pageopacity="0"
     inkscape:pageshadow="2"
     inkscape:window-width="1280"
     inkscape:window-height="982"
     id="namedview14"
     showgrid="false"
     inkscape:zoom="4.4623674"
     inkscape:cx="35.733716"
     inkscape:cy="23.712017"
     inkscape:window-x="0"
     inkscape:window-y="0"
     inkscape:window-maximized="1"
     inkscape:current-layer="svg12" />
  <path
     style="fill:#5a2ca0;stroke-width:0.9999997"
     d="M 32.499996,7 C 18.692783,7 7.5,18.192774 7.5,31.999996 7.5,45.807214 18.692783,57 32.499996,57 46.307215,57 57.5,45.807214 57.5,31.999996 57.5,18.192774 46.307215,7 32.499996,7 Z m 0,5.555561 c 10.738891,0 19.44444,8.705552 19.44444,19.444435 0,10.738887 -8.705549,19.444448 -19.44444,19.444448 -10.738887,0 -19.444437,-8.705561 -19.444437,-19.444448 0,-10.738883 8.70555,-19.444435 19.444437,-19.444435 z m 0,13.888887 a 5.5555544,5.5555547 0 0 0 -5.555551,5.555548 5.5555544,5.5555547 0 0 0 5.555551,5.555556 5.5555544,5.5555547 0 0 0 5.555556,-5.555556 5.5555544,5.5555547 0 0 0 -5.555556,-5.555548 z"
     id="path8"
     inkscape:connector-curvature="0" />
</svg>
