<?xml version="1.0" encoding="UTF-8" standalone="no"?>
<svg
   xmlns:dc="http://purl.org/dc/elements/1.1/"
   xmlns:cc="http://creativecommons.org/ns#"
   xmlns:rdf="http://www.w3.org/1999/02/22-rdf-syntax-ns#"
   xmlns:svg="http://www.w3.org/2000/svg"
   xmlns="http://www.w3.org/2000/svg"
   xmlns:sodipodi="http://sodipodi.sourceforge.net/DTD/sodipodi-0.dtd"
   xmlns:inkscape="http://www.inkscape.org/namespaces/inkscape"
   width="64"
   height="64"
   version="1"
   id="svg12"
   sodipodi:docname="system-log-out.svg"
   inkscape:version="0.92.3 (unknown)">
  <metadata
     id="metadata18">
    <rdf:RDF>
      <cc:Work
         rdf:about="">
        <dc:format>image/svg+xml</dc:format>
        <dc:type
           rdf:resource="http://purl.org/dc/dcmitype/StillImage" />
      </cc:Work>
    </rdf:RDF>
  </metadata>
  <defs
     id="defs16" />
  <sodipodi:namedview
     pagecolor="#ffffff"
     bordercolor="#666666"
     borderopacity="1"
     objecttolerance="10"
     gridtolerance="10"
     guidetolerance="10"
     inkscape:pageopacity="0"
     inkscape:pageshadow="2"
     inkscape:window-width="1280"
     inkscape:window-height="982"
     id="namedview14"
     showgrid="false"
     inkscape:zoom="4.4623675"
     inkscape:cx="22.896242"
     inkscape:cy="25.71522"
     inkscape:window-x="0"
     inkscape:window-y="0"
     inkscape:window-maximized="1"
     inkscape:current-layer="svg12" />
  <path
     style="fill:#008080;stroke-width:0.99999982"
     d="M 32.499999,7.1000019 A 24.999998,25.000003 0 0 1 57.500002,32.100004 24.999998,25.000003 0 0 1 32.499999,57.1 24.999998,25.000003 0 0 1 7.5,32.100004 24.999998,25.000003 0 0 1 32.499999,7.1000019 Z m 0,5.5555581 A 19.444437,19.444434 0 0 0 13.055562,32.100004 19.444437,19.444434 0 0 0 32.499999,51.544442 19.444437,19.444434 0 0 0 51.944442,32.100004 19.444437,19.444434 0 0 0 32.499999,12.65556 Z m 0,11.111115 5.506676,4.27527 5.605542,4.058335 -5.602775,4.058341 -5.508323,4.274994 0.06666,-5.555553 h -8.400003 c -1.538891,0 -2.77777,-1.238893 -2.77777,-2.777782 0,-1.538885 1.238879,-2.777776 2.77777,-2.777776 h 8.398342 l -0.06508,-5.555557 z"
     id="path8"
     inkscape:connector-curvature="0" />
</svg>
