<?xml version="1.0" encoding="UTF-8" standalone="no"?>
<svg width="194px" height="61px" viewBox="0 0 194 61" version="1.1" xmlns="http://www.w3.org/2000/svg" xmlns:xlink="http://www.w3.org/1999/xlink">
    <!-- Generator: Sketch 39.1 (31720) - http://www.bohemiancoding.com/sketch -->
    <title>logo</title>
    <desc>Created with Sketch.</desc>
    <defs></defs>
    <g id="Extension" stroke="none" stroke-width="1" fill="none" fill-rule="evenodd">
        <g id="Main" transform="translate(-63.000000, -123.000000)">
            <g id="top" transform="translate(33.000000, 123.000000)">
                <g id="logo" transform="translate(29.000000, 0.000000)">
                    <g id="icon-extension">
                        <polygon id="Fill-1" fill="#2A89F7" points="33 42 17 22 49 22"></polygon>
                        <path d="M46.562,0 L41.37,6.48885146 C50.482,9.89729871 56.998,18.6704499 56.998,28.9557995 C56.998,42.1935366 46.234,52.9589492 32.998,52.9589492 C19.766,52.9589492 8.998,42.1935366 8.998,28.9557995 C8.998,18.6704499 15.518,9.89729871 24.63,6.48885146 L19.438,0 C8.554,5.10867035 0.998,16.1381176 0.998,28.9557995 C0.998,46.6301187 15.326,60.9599991 32.998,60.9599991 C50.674,60.9599991 64.998,46.6301187 64.998,28.9557995 C64.998,16.1381176 57.446,5.10867035 46.562,0" id="Fill-2" fill="#FEA30E"></path>
                    </g>
                    <g id="text" transform="translate(80.000000, 16.000000)" fill="#4A4B54">
                        <path d="M0,7.8115 C0,7.5475 0.096,7.3205 0.288,7.1275 C0.48,6.9355 0.708,6.8395 0.973,6.8395 L3.708,6.8395 C3.972,6.8395 4.2,6.9355 4.393,7.1275 C4.584,7.3205 4.681,7.5475 4.681,7.8115 L4.681,16.9565 C4.681,18.3955 4.986,19.5475 5.599,20.4115 C6.21,21.2755 7.212,21.7075 8.604,21.7075 C9.876,21.7075 10.848,21.2755 11.521,20.4115 C12.192,19.5475 12.528,18.3955 12.528,16.9565 L12.528,7.8115 C12.528,7.5475 12.624,7.3205 12.816,7.1275 C13.008,6.9355 13.236,6.8395 13.5,6.8395 L16.236,6.8395 C16.5,6.8395 16.728,6.9355 16.92,7.1275 C17.112,7.3205 17.208,7.5475 17.208,7.8115 L17.208,24.5875 C17.208,24.8515 17.112,25.0805 16.92,25.2715 C16.728,25.4635 16.5,25.5595 16.236,25.5595 L13.5,25.5595 C13.236,25.5595 13.008,25.4635 12.816,25.2715 C12.624,25.0805 12.528,24.8515 12.528,24.5875 L12.528,23.7595 C11.976,24.3115 11.292,24.8095 10.477,25.2535 C9.66,25.6975 8.677,25.9195 7.524,25.9195 C6.061,25.9195 4.848,25.6915 3.889,25.2355 C2.928,24.7805 2.16,24.1675 1.584,23.3995 C1.008,22.6315 0.6,21.7385 0.36,20.7175 C0.12,19.6985 0,18.6245 0,17.4955 L0,7.8115 Z" id="Fill-1"></path>
                        <path d="M38.7441,24.5879 C38.7441,24.8519 38.6481,25.0799 38.4561,25.2719 C38.2641,25.4639 38.0361,25.5599 37.7721,25.5599 L35.0361,25.5599 C34.7721,25.5599 34.5441,25.4639 34.3521,25.2719 C34.1601,25.0799 34.0641,24.8519 34.0641,24.5879 L34.0641,15.4429 C34.0641,14.0039 33.7271,12.8519 33.0571,11.9869 C32.3841,11.1239 31.3511,10.6919 29.9601,10.6919 C28.6881,10.6919 27.6861,11.1239 26.9541,11.9869 C26.2221,12.8519 25.8561,14.0039 25.8561,15.4429 L25.8561,24.5879 C25.8561,24.8519 25.7601,25.0799 25.5681,25.2719 C25.3761,25.4639 25.1481,25.5599 24.8851,25.5599 L22.1481,25.5599 C21.8841,25.5599 21.6561,25.4639 21.4651,25.2719 C21.2721,25.0799 21.1771,24.8519 21.1771,24.5879 L21.1771,7.8119 C21.1771,7.5479 21.2721,7.3199 21.4651,7.1279 C21.6561,6.9359 21.8841,6.8399 22.1481,6.8399 L24.8851,6.8399 C25.1481,6.8399 25.3761,6.9359 25.5681,7.1279 C25.7601,7.3199 25.8561,7.5479 25.8561,7.8119 L25.8561,8.6399 C26.4801,8.0159 27.2121,7.4999 28.0531,7.0919 C28.8921,6.6839 29.8891,6.4799 31.0401,6.4799 C32.5041,6.4799 33.7271,6.7079 34.7121,7.1629 C35.6961,7.6199 36.4881,8.2319 37.0891,8.9999 C37.6881,9.7679 38.1141,10.6619 38.3661,11.6819 C38.6181,12.7019 38.7441,13.7749 38.7441,14.9029 L38.7441,24.5879 Z" id="Fill-3"></path>
                        <path d="M57.4639,0.3594 C57.7279,0.3594 57.9549,0.4564 58.1479,0.6474 C58.3399,0.8394 58.4359,1.0674 58.4359,1.3324 L58.4359,3.8874 C58.4359,4.1524 58.3399,4.3804 58.1479,4.5714 C57.9549,4.7634 57.7279,4.8594 57.4639,4.8594 L50.9839,4.8594 L50.9839,24.5884 C50.9839,24.8514 50.8879,25.0804 50.6959,25.2714 C50.5039,25.4634 50.2759,25.5594 50.0119,25.5594 L47.0959,25.5594 C46.8309,25.5594 46.6039,25.4634 46.4119,25.2714 C46.2199,25.0804 46.1239,24.8514 46.1239,24.5884 L46.1239,4.8594 L39.6439,4.8594 C39.3799,4.8594 39.1519,4.7634 38.9599,4.5714 C38.7679,4.3804 38.6719,4.1524 38.6719,3.8874 L38.6719,1.3324 C38.6719,1.0674 38.7679,0.8394 38.9599,0.6474 C39.1519,0.4564 39.3799,0.3594 39.6439,0.3594 L57.4639,0.3594 Z" id="Fill-5"></path>
                        <path d="M64.5557,21.5996 C65.3707,21.5996 66.0977,21.4866 66.7337,21.2576 C67.3687,21.0296 67.9037,20.7236 68.3357,20.3396 C68.7677,19.9556 69.0917,19.5246 69.3077,19.0436 C69.5237,18.5636 69.6317,18.0716 69.6317,17.5676 L69.6317,17.2076 L64.7357,18.0716 C63.7507,18.2406 63.0437,18.4856 62.6117,18.8096 C62.1797,19.1336 61.9637,19.5716 61.9637,20.1236 C61.9637,20.6276 62.2217,20.9996 62.7377,21.2396 C63.2527,21.4796 63.8597,21.5996 64.5557,21.5996 M58.5437,11.4476 C58.6397,10.9436 58.8617,10.4036 59.2097,9.8276 C59.5577,9.2516 60.0497,8.7116 60.6857,8.2076 C61.3217,7.7036 62.1017,7.2896 63.0257,6.9656 C63.9497,6.6416 65.0237,6.4796 66.2477,6.4796 C67.4717,6.4796 68.5757,6.6416 69.5597,6.9656 C70.5427,7.2896 71.3897,7.7636 72.0977,8.3876 C72.8057,9.0116 73.3517,9.7976 73.7357,10.7456 C74.1187,11.6946 74.3117,12.7796 74.3117,14.0036 L74.3117,24.5876 C74.3117,24.8516 74.2157,25.0796 74.0237,25.2716 C73.8307,25.4636 73.6037,25.5596 73.3397,25.5596 L70.6037,25.5596 C70.3387,25.5596 70.1117,25.4636 69.9197,25.2716 C69.7277,25.0796 69.6317,24.8516 69.6317,24.5876 L69.6317,23.3996 C69.1277,24.0956 68.4017,24.6906 67.4527,25.1816 C66.5047,25.6726 65.2987,25.9196 63.8357,25.9196 C62.8037,25.9196 61.8787,25.7816 61.0637,25.5056 C60.2467,25.2296 59.5637,24.8396 59.0117,24.3356 C58.4587,23.8316 58.0337,23.2376 57.7337,22.5536 C57.4337,21.8696 57.2837,21.1206 57.2837,20.3036 C57.2837,18.6476 57.8707,17.3516 59.0477,16.4156 C60.2237,15.4796 61.7947,14.8436 63.7637,14.5076 L69.6317,13.4996 C69.6317,12.5156 69.3077,11.8206 68.6597,11.4116 C68.0117,11.0036 67.2067,10.7996 66.2477,10.7996 C65.6477,10.7996 65.1797,10.8836 64.8437,11.0516 C64.5067,11.2196 64.1837,11.4476 63.8707,11.7356 C63.6557,11.9276 63.4577,12.0596 63.2777,12.1316 C63.0977,12.2036 62.8997,12.2396 62.6837,12.2396 L59.3357,12.2396 C59.0957,12.2396 58.8917,12.1676 58.7237,12.0236 C58.5557,11.8796 58.4947,11.6876 58.5437,11.4476" id="Fill-7"></path>
                        <path d="M91.5635,15.1914 C91.4185,13.6314 90.9385,12.5094 90.1235,11.8254 C89.3065,11.1414 88.3105,10.7994 87.1345,10.7994 C85.9595,10.7994 84.9685,11.1594 84.1655,11.8794 C83.3615,12.5994 82.8995,13.5844 82.7795,14.8324 C82.7305,15.1914 82.7075,15.6474 82.7075,16.1994 C82.7075,16.7524 82.7305,17.2084 82.7795,17.5674 C82.8995,18.8634 83.3615,19.8594 84.1655,20.5554 C84.9685,21.2524 85.9595,21.5994 87.1345,21.5994 C88.3105,21.5994 89.3065,21.2574 90.1235,20.5734 C90.9385,19.8894 91.4185,18.7674 91.5635,17.2084 C91.6345,16.5364 91.6345,15.8634 91.5635,15.1914 M88.2145,6.4794 C89.4155,6.4794 90.5015,6.7134 91.4735,7.1814 C92.4455,7.6494 93.2735,8.2744 93.9575,9.0534 C94.6415,9.8344 95.1815,10.7334 95.5775,11.7534 C95.9735,12.7744 96.1955,13.8364 96.2435,14.9394 C96.2665,15.2994 96.2795,15.7194 96.2795,16.1994 C96.2795,16.6794 96.2665,17.0994 96.2435,17.4604 C96.1955,18.5634 95.9735,19.6264 95.5775,20.6454 C95.1815,21.6664 94.6415,22.5664 93.9575,23.3454 C93.2735,24.1264 92.4455,24.7504 91.4735,25.2174 C90.5015,25.6854 89.4155,25.9204 88.2145,25.9204 C87.4705,25.9204 86.8045,25.8474 86.2165,25.7034 C85.6285,25.5594 85.1135,25.3794 84.6685,25.1634 C84.2245,24.9474 83.8465,24.7134 83.5355,24.4624 C83.2225,24.2104 82.9705,23.9754 82.7795,23.7594 L82.7795,24.5874 C82.7795,24.8514 82.6825,25.0804 82.4915,25.2714 C82.2985,25.4634 82.0715,25.5594 81.8075,25.5594 L79.0715,25.5594 C78.8065,25.5594 78.5795,25.4634 78.3875,25.2714 C78.1955,25.0804 78.0995,24.8514 78.0995,24.5874 L78.0995,0.9714 C78.0995,0.7084 78.1955,0.4794 78.3875,0.2874 C78.5795,0.0954 78.8065,0.0004 79.0715,0.0004 L81.8075,0.0004 C82.0715,0.0004 82.2985,0.0954 82.4915,0.2874 C82.6825,0.4794 82.7795,0.7084 82.7795,0.9714 L82.7795,8.6394 C82.9705,8.4234 83.2225,8.1894 83.5355,7.9374 C83.8465,7.6854 84.2245,7.4514 84.6685,7.2354 C85.1135,7.0194 85.6285,6.8394 86.2165,6.6954 C86.8045,6.5514 87.4705,6.4794 88.2145,6.4794" id="Fill-9"></path>
                        <path d="M109.5703,20.1953 C109.5703,19.9313 109.4863,19.7163 109.3183,19.5483 C109.1503,19.3803 108.8563,19.2233 108.4363,19.0793 C108.0163,18.9353 107.4583,18.7923 106.7623,18.6473 C106.0663,18.5043 105.1783,18.3113 104.0983,18.0713 C103.0423,17.8323 102.1663,17.5313 101.4703,17.1723 C100.7743,16.8113 100.2163,16.3913 99.7973,15.9113 C99.3763,15.4313 99.0823,14.8853 98.9143,14.2733 C98.7463,13.6613 98.6623,12.9953 98.6623,12.2753 C98.6623,11.5553 98.8303,10.8473 99.1663,10.1513 C99.5023,9.4563 99.9883,8.8383 100.6243,8.2983 C101.2593,7.7573 102.0343,7.3203 102.9463,6.9833 C103.8583,6.6473 104.9023,6.4793 106.0783,6.4793 C107.2543,6.4793 108.3043,6.6113 109.2283,6.8763 C110.1523,7.1393 110.9383,7.4873 111.5873,7.9203 C112.2343,8.3513 112.7383,8.8493 113.0983,9.4133 C113.4583,9.9773 113.6623,10.5483 113.7103,11.1243 C113.7343,11.3873 113.6443,11.6163 113.4403,11.8073 C113.2363,12.0003 113.0023,12.0953 112.7383,12.0953 L109.9663,12.0953 C109.6063,12.0953 109.3373,12.0293 109.1563,11.8973 C108.9763,11.7653 108.7783,11.6163 108.5623,11.4473 C108.3463,11.2803 108.0583,11.1303 107.6983,10.9983 C107.3393,10.8663 106.7993,10.7993 106.0783,10.7993 C105.3583,10.7993 104.7223,10.9073 104.1713,11.1243 C103.6183,11.3403 103.3423,11.7233 103.3423,12.2753 C103.3423,12.5403 103.4083,12.7613 103.5403,12.9413 C103.6723,13.1213 103.9243,13.2833 104.2973,13.4273 C104.6683,13.5713 105.1833,13.7213 105.8443,13.8783 C106.5043,14.0343 107.3623,14.2193 108.4183,14.4353 C110.5543,14.8913 112.0603,15.6053 112.9363,16.5773 C113.8123,17.5493 114.2503,18.7563 114.2503,20.1953 C114.2503,20.9163 114.0703,21.6173 113.7103,22.3013 C113.3503,22.9853 112.8283,23.5973 112.1443,24.1373 C111.4603,24.6773 110.6203,25.1093 109.6243,25.4333 C108.6283,25.7573 107.5063,25.9203 106.2583,25.9203 C104.9863,25.9203 103.8643,25.7693 102.8923,25.4693 C101.9213,25.1703 101.0973,24.7803 100.4263,24.2993 C99.7543,23.8193 99.2383,23.2793 98.8793,22.6793 C98.5183,22.0803 98.3263,21.4913 98.3023,20.9163 C98.2783,20.6513 98.3683,20.4243 98.5723,20.2313 C98.7763,20.0403 99.0093,19.9433 99.2743,19.9433 L102.0473,19.9433 C102.4063,19.9433 102.6763,20.0283 102.8563,20.1953 C103.0363,20.3633 103.2403,20.5553 103.4683,20.7713 C103.6963,20.9873 104.0133,21.1793 104.4233,21.3473 C104.8303,21.5153 105.4423,21.5993 106.2583,21.5993 C106.6183,21.5993 106.9903,21.5763 107.3743,21.5273 C107.7583,21.4793 108.1123,21.4013 108.4363,21.2943 C108.7603,21.1853 109.0303,21.0423 109.2463,20.8613 C109.4633,20.6813 109.5703,20.4603 109.5703,20.1953" id="Fill-12"></path>
                    </g>
                </g>
            </g>
        </g>
    </g>
</svg>