<?xml version="1.0" encoding="UTF-8" standalone="no"?>
<svg
   xmlns:dc="http://purl.org/dc/elements/1.1/"
   xmlns:cc="http://creativecommons.org/ns#"
   xmlns:rdf="http://www.w3.org/1999/02/22-rdf-syntax-ns#"
   xmlns:svg="http://www.w3.org/2000/svg"
   xmlns="http://www.w3.org/2000/svg"
   xmlns:sodipodi="http://sodipodi.sourceforge.net/DTD/sodipodi-0.dtd"
   xmlns:inkscape="http://www.inkscape.org/namespaces/inkscape"
   width="64"
   height="64"
   version="1"
   id="svg12"
   sodipodi:docname="system-suspend.svg"
   inkscape:version="0.92.3 (unknown)">
  <metadata
     id="metadata18">
    <rdf:RDF>
      <cc:Work
         rdf:about="">
        <dc:format>image/svg+xml</dc:format>
        <dc:type
           rdf:resource="http://purl.org/dc/dcmitype/StillImage" />
      </cc:Work>
    </rdf:RDF>
  </metadata>
  <defs
     id="defs16" />
  <sodipodi:namedview
     pagecolor="#ffffff"
     bordercolor="#666666"
     borderopacity="1"
     objecttolerance="10"
     gridtolerance="10"
     guidetolerance="10"
     inkscape:pageopacity="0"
     inkscape:pageshadow="2"
     inkscape:window-width="1280"
     inkscape:window-height="982"
     id="namedview14"
     showgrid="false"
     inkscape:zoom="3.1553703"
     inkscape:cx="28.272971"
     inkscape:cy="11.427232"
     inkscape:window-x="0"
     inkscape:window-y="0"
     inkscape:window-maximized="1"
     inkscape:current-layer="svg12" />
  <path
     style="fill:#3daee9;fill-opacity:1;stroke-width:0.99999982"
     d="M 57.399998,31.800008 A 24.999993,25.000002 0 0 0 32.399994,6.8 24.999993,25.000002 0 0 0 7.4,31.800008 24.999993,25.000002 0 0 0 32.399994,56.8 24.999993,25.000002 0 0 0 57.399998,31.800008 Z m -5.555561,0 A 19.444436,19.444439 0 0 1 32.399994,51.244446 19.444436,19.444439 0 0 1 12.95556,31.800008 19.444436,19.444439 0 0 1 32.399994,12.355557 19.444436,19.444439 0 0 1 51.844437,31.800008 Z m -8.333328,0 c 0,-1.538899 -1.238893,-2.77779 -2.777778,-2.77779 H 24.066665 c -1.538887,0 -2.777777,1.238891 -2.777777,2.77779 0,1.538882 1.23889,2.777767 2.777777,2.777767 h 16.666666 c 1.538885,0 2.777778,-1.238885 2.777778,-2.777767 z"
     id="path8"
     inkscape:connector-curvature="0" />
</svg>
